# xmcd
#
# Track frame offsets:
#	150
#	19096
#	42347
#	67047
#	89107
#	110914
#	132113
#	154495
#	176901
#	199208
#	220650
#	241895
#
# Disc length: 3553 seconds
#
# Revision: 1
# Processed by: cddbd v1.5.2PL0 Copyright (c) Steve Scherf et al.
# Submitted via: EZCDAudioConverter 7.1.7.1
#
DISCID=b70ddf0c
DTITLE=群星 - 绝对爱唱 Dts-Es6.1
DYEAR=2007
DGENRE=
TTITLE0=张恒 - 该死的温柔
TTITLE1=张恒 - 不想让你哭
TTITLE2=黎明花 - 红花雨
TTITLE3=张恒＆黎明花 - 梁山伯与茱丽叶
TTITLE4=童丽 - 星晴
TTITLE5=张恒 - 认真的雪
TTITLE6=黎明花 - 难道爱一个人有错吗？
TTITLE7=张恒 - 菊花台
TTITLE8=黎明花 - 借我一生
TTITLE9=张恒 - 连哭都是我的错
TTITLE10=黎明花 - 我不后悔
TTITLE11=费星 - 月半弯
EXTD=
EXTT0=
EXTT1=
EXTT2=
EXTT3=
EXTT4=
EXTT5=
EXTT6=
EXTT7=
EXTT8=
EXTT9=
EXTT10=
EXTT11=
PLAYORDER=
